
      <svg data-v-0dd9719b="" version="1.0" xmlns="http://www.w3.org/2000/svg" xmlns:xlink="http://www.w3.org/1999/xlink" color-interpolation-filters="sRGB" style="margin: auto;">
         <g data-v-0dd9719b="" fill="#e69b41" class="icon-text-wrapper icon-svg-group iconsvg" transform="translate(81.58499908447266,64.66657257080078)">
            <g class="iconsvg-imagesvg" transform="matrix(1,0,0,1,58.415000915527344,0)" opacity="1">
               <g>
                  <rect fill="#e69b41" fill-opacity="0" stroke-width="2" x="0" y="0" width="60" height="71.28684638872717" class="image-rect"></rect>
                  <svg filter="url(#colors2594294776)" x="0" y="0" width="60" height="71.28684638872717" filtersec="colorsf3006975946" class="image-svg-svg primary" style="overflow: visible;">
                     <svg xmlns="http://www.w3.org/2000/svg" xmlns:xlink="http://www.w3.org/1999/xlink" version="1.1" x="0px" y="0px" viewBox="3.799999952316284 0 40.400001525878906 48" xml:space="preserve">
                        <g>
                           <path d="M27.6,8c-0.2-1-0.9-1.8-1.7-2.3c0.8-0.6,1.3-1.5,1.3-2.6C27.2,1.4,25.8,0,24,0s-3.2,1.4-3.2,3.2c0,1.1,0.5,2,1.3,2.6   C21.3,6.2,20.6,7,20.4,8C11,9.7,3.8,17.9,3.8,27.8C3.8,39,12.9,48,24,48c11.1,0,20.2-9,20.2-20.2C44.2,17.9,37,9.7,27.6,8z    M24,45.1c-9.5,0-17.3-7.7-17.3-17.3c0-9.5,7.7-17.3,17.3-17.3s17.3,7.7,17.3,17.3C41.3,37.4,33.5,45.1,24,45.1z"></path>
                           <path d="M24,12.5c-8.4,0-15.3,6.9-15.3,15.3S15.6,43.2,24,43.2c8.4,0,15.3-6.9,15.3-15.3S32.4,12.5,24,12.5z M11.6,29.1   c-0.7,0-1.3-0.6-1.3-1.3s0.6-1.3,1.3-1.3c0.7,0,1.3,0.6,1.3,1.3S12.3,29.1,11.6,29.1z M24,14.1c0.7,0,1.3,0.6,1.3,1.3   c0,0.7-0.6,1.3-1.3,1.3c-0.7,0-1.3-0.6-1.3-1.3C22.7,14.7,23.3,14.1,24,14.1z M24,41.5c-0.7,0-1.3-0.6-1.3-1.3s0.6-1.3,1.3-1.3   c0.7,0,1.3,0.6,1.3,1.3S24.7,41.5,24,41.5z M25.6,29.4L16,35.8l6.3-9.6l9.6-6.3L25.6,29.4z M36.4,29.1c-0.7,0-1.3-0.6-1.3-1.3   s0.6-1.3,1.3-1.3c0.7,0,1.3,0.6,1.3,1.3S37.1,29.1,36.4,29.1z"></path>
                           <circle cx="24" cy="27.8" r="1.4"></circle>
                        </g>
                     </svg>
                  </svg>
                  <defs>
                     <filter id="colors2594294776">
                        <feColorMatrix type="matrix" values="0 0 0 0 0.4453125  0 0 0 0 0.29296875  0 0 0 0 0.2265625  0 0 0 1 0" class="icon-fecolormatrix"></feColorMatrix>
                     </filter>
                     <filter id="colorsf3006975946">
                        <feColorMatrix type="matrix" values="0 0 0 0 0.99609375  0 0 0 0 0.99609375  0 0 0 0 0.99609375  0 0 0 1 0" class="icon-fecolormatrix"></feColorMatrix>
                     </filter>
                     <filter id="colorsb620472437">
                        <feColorMatrix type="matrix" values="0 0 0 0 0  0 0 0 0 0  0 0 0 0 0  0 0 0 1 0" class="icon-fecolormatrix"></feColorMatrix>
                     </filter>
                  </defs>
               </g>
            </g>
            <g transform="translate(0,78.28684997558594)">
               <g data-gra="path-name" fill-rule="" class="tp-name iconsvg-namesvg" opacity="1" transform="matrix(1,0,0,1,0,0)">
                  <g transform="scale(1)">
                     <g>
                        <path d="M2.92-29.52L21.15-29.52 21.15-24.74 8.84-24.74 8.84-17.17 18.27-17.17 18.27-12.48 8.84-12.48 8.84 0 2.92 0 2.92-29.52ZM25.33-31.3L31.25-31.3 31.25 0 25.33 0 25.33-31.3ZM53.2-23.43L59.51-23.43 45 11.08 38.7 11.08 43.77-0.59 34.38-23.43 41.02-23.43 47.07-7.06 53.2-23.43ZM82.73 0L80.78-5.63 69.02-5.63 67.08 0 60.86 0 71.48-29.56 78.37-29.56 88.98 0 82.73 0ZM70.63-10.36L79.17-10.36 74.9-22.71 70.63-10.36ZM119.77-23.43L125.44-23.43 118.59 0 112.2 0 107.93-16.37 103.66 0 97.23 0 90.34-23.43 96.34-23.43 100.49-5.58 104.97-23.43 111.23-23.43 115.63-5.63 119.77-23.43ZM127.13-11.8Q127.13-15.35 128.55-18.1 129.97-20.85 132.4-22.33 134.83-23.81 137.83-23.81L137.83-23.81Q140.46-23.81 142.42-22.75 144.39-21.7 145.57-20.09L145.57-20.09 145.57-23.43 151.54-23.43 151.54 0 145.57 0 145.57-3.43Q144.43-1.78 142.42-0.7 140.41 0.38 137.79 0.38L137.79 0.38Q134.83 0.38 132.4-1.14 129.97-2.66 128.55-5.43 127.13-8.2 127.13-11.8L127.13-11.8ZM145.57-11.72Q145.57-13.87 144.73-15.42 143.88-16.96 142.44-17.78 141.01-18.61 139.36-18.61L139.36-18.61Q137.71-18.61 136.31-17.81 134.92-17 134.05-15.46 133.18-13.91 133.18-11.8L133.18-11.8Q133.18-9.69 134.05-8.1 134.92-6.51 136.33-5.67 137.75-4.82 139.36-4.82L139.36-4.82Q141.01-4.82 142.44-5.65 143.88-6.47 144.73-8.01 145.57-9.56 145.57-11.72L145.57-11.72ZM173.44-23.43L179.75-23.43 165.24 11.08 158.94 11.08 164.01-0.59 154.62-23.43 161.26-23.43 167.31-7.06 173.44-23.43Z" transform="translate(-2.9200000762939453, 31.299999237060547)"></path>
                     </g>
                     <!----> <!----> <!----> <!----> <!----> <!----> <!---->
                  </g>
               </g>
               <!---->
            </g>
         </g>
      </svg>